<?xml version="1.0" encoding="UTF-8" standalone="no"?>
<!-- Created with Inkscape (http://www.inkscape.org/) -->
<svg
   xmlns:dc="http://purl.org/dc/elements/1.1/"
   xmlns:cc="http://creativecommons.org/ns#"
   xmlns:rdf="http://www.w3.org/1999/02/22-rdf-syntax-ns#"
   xmlns:svg="http://www.w3.org/2000/svg"
   xmlns="http://www.w3.org/2000/svg"
   xmlns:xlink="http://www.w3.org/1999/xlink"
   xmlns:sodipodi="http://sodipodi.sourceforge.net/DTD/sodipodi-0.dtd"
   xmlns:inkscape="http://www.inkscape.org/namespaces/inkscape"
   width="48"
   height="48"
   id="svg2"
   sodipodi:version="0.32"
   inkscape:version="0.46"
   version="1.0"
   sodipodi:docbase="/home/lapo/Icone/gnome-panel/scalable"
   sodipodi:docname="ctys-usm.svg"
   inkscape:export-filename="/home/lapo/Desktop/xubuntu/pngs/wksp.png"
   inkscape:export-xdpi="90"
   inkscape:export-ydpi="90"
   inkscape:output_extension="org.inkscape.output.svg.inkscape">
  <sodipodi:namedview
     inkscape:window-height="808"
     inkscape:window-width="1051"
     inkscape:pageshadow="2"
     inkscape:pageopacity="0.0"
     guidetolerance="10.0"
     gridtolerance="10.0"
     objecttolerance="10.0"
     borderopacity="1.0"
     bordercolor="#666666"
     pagecolor="#ffffff"
     id="base"
     showgrid="false"
     inkscape:showpageshadow="false"
     showborder="false"
     inkscape:zoom="7.9999999"
     inkscape:cx="34.528074"
     inkscape:cy="26.800824"
     inkscape:window-x="3870"
     inkscape:window-y="1082"
     inkscape:current-layer="layer1">
    <inkscape:grid
       id="GridFromPre046Settings"
       type="xygrid"
       originx="0px"
       originy="0px"
       spacingx="0.5px"
       spacingy="0.5px"
       color="#0000ff"
       empcolor="#0000ff"
       opacity="0.2"
       empopacity="0.4"
       empspacing="2" />
  </sodipodi:namedview>
  <defs
     id="defs4">
    <inkscape:perspective
       sodipodi:type="inkscape:persp3d"
       inkscape:vp_x="0 : 24 : 1"
       inkscape:vp_y="6.1230318e-14 : 1000 : 0"
       inkscape:vp_z="48 : 24 : 1"
       inkscape:persp3d-origin="24 : 16 : 1"
       id="perspective50" />
    <linearGradient
       id="linearGradient3690">
      <stop
         style="stop-color:white;stop-opacity:1;"
         offset="0"
         id="stop3692" />
      <stop
         style="stop-color:white;stop-opacity:0.46875"
         offset="1"
         id="stop3694" />
    </linearGradient>
    <linearGradient
       id="linearGradient3674">
      <stop
         style="stop-color:#3465a4;stop-opacity:1"
         offset="0"
         id="stop3676" />
      <stop
         style="stop-color:#729fcf;stop-opacity:1;"
         offset="1"
         id="stop3678" />
    </linearGradient>
    <linearGradient
       id="linearGradient2781">
      <stop
         style="stop-color:#d3d7cf;stop-opacity:1"
         offset="0"
         id="stop2783" />
      <stop
         style="stop-color:#eeeeec;stop-opacity:1"
         offset="1"
         id="stop2785" />
    </linearGradient>
    <linearGradient
       inkscape:collect="always"
       xlink:href="#linearGradient2781"
       id="linearGradient2787"
       x1="24.925514"
       y1="40.000107"
       x2="24.925514"
       y2="19.53867"
       gradientUnits="userSpaceOnUse"
       gradientTransform="translate(3,3)" />
    <linearGradient
       inkscape:collect="always"
       xlink:href="#linearGradient3674"
       id="linearGradient3680"
       x1="23.069359"
       y1="6.7993021"
       x2="23.069359"
       y2="12.403291"
       gradientUnits="userSpaceOnUse"
       gradientTransform="translate(3,3)" />
    <linearGradient
       inkscape:collect="always"
       xlink:href="#linearGradient3690"
       id="linearGradient3696"
       x1="9.5"
       y1="16.26436"
       x2="9.5"
       y2="13.408723"
       gradientUnits="userSpaceOnUse"
       gradientTransform="translate(3,3)" />
    <linearGradient
       id="linearGradient5048">
      <stop
         id="stop5050"
         offset="0"
         style="stop-color:black;stop-opacity:0;" />
      <stop
         style="stop-color:black;stop-opacity:1;"
         offset="0.5"
         id="stop5056" />
      <stop
         id="stop5052"
         offset="1"
         style="stop-color:black;stop-opacity:0;" />
    </linearGradient>
    <linearGradient
       id="linearGradient5060"
       inkscape:collect="always">
      <stop
         id="stop5062"
         offset="0"
         style="stop-color:black;stop-opacity:1;" />
      <stop
         id="stop5064"
         offset="1"
         style="stop-color:black;stop-opacity:0;" />
    </linearGradient>
    <linearGradient
       inkscape:collect="always"
       xlink:href="#linearGradient5048"
       id="linearGradient3843"
       gradientUnits="userSpaceOnUse"
       gradientTransform="matrix(2.774389,0,0,1.969706,-1892.179,-872.8854)"
       x1="302.85715"
       y1="366.64789"
       x2="302.85715"
       y2="609.50507" />
    <radialGradient
       inkscape:collect="always"
       xlink:href="#linearGradient5060"
       id="radialGradient3845"
       gradientUnits="userSpaceOnUse"
       gradientTransform="matrix(2.774389,0,0,1.969706,-1891.633,-872.8854)"
       cx="605.71429"
       cy="486.64789"
       fx="605.71429"
       fy="486.64789"
       r="117.14286" />
    <radialGradient
       inkscape:collect="always"
       xlink:href="#linearGradient5060"
       id="radialGradient3847"
       gradientUnits="userSpaceOnUse"
       gradientTransform="matrix(-2.774389,0,0,1.969706,112.7623,-872.8854)"
       cx="605.71429"
       cy="486.64789"
       fx="605.71429"
       fy="486.64789"
       r="117.14286" />
    <linearGradient
       inkscape:collect="always"
       xlink:href="#linearGradient2781"
       id="linearGradient1911"
       gradientUnits="userSpaceOnUse"
       gradientTransform="translate(3,3)"
       x1="24.925514"
       y1="40.000107"
       x2="24.925514"
       y2="19.53867" />
    <linearGradient
       inkscape:collect="always"
       xlink:href="#linearGradient3674"
       id="linearGradient1913"
       gradientUnits="userSpaceOnUse"
       gradientTransform="translate(3,3)"
       x1="23.069359"
       y1="6.7993021"
       x2="23.069359"
       y2="13.101956" />
    <linearGradient
       inkscape:collect="always"
       xlink:href="#linearGradient3690"
       id="linearGradient1915"
       gradientUnits="userSpaceOnUse"
       gradientTransform="translate(3,3)"
       x1="9.5"
       y1="16.26436"
       x2="9.5"
       y2="13.408723" />
  </defs>
  <sodipodi:namedview
     id="namedview30"
     pagecolor="#ffffff"
     bordercolor="#666666"
     borderopacity="1.0"
     inkscape:pageopacity="0.0"
     inkscape:pageshadow="2"
     inkscape:zoom="1"
     inkscape:cx="10.097903"
     inkscape:cy="38.917761"
     inkscape:document-units="px"
     inkscape:current-layer="layer1"
     showgrid="false"
     inkscape:window-width="965"
     inkscape:window-height="763"
     inkscape:window-x="176"
     inkscape:window-y="103"
     fill="#729fcf"
     stroke="#3465a4"
     inkscape:showpageshadow="false"
     showguides="false"
     inkscape:guide-bbox="true"
     inkscape:grid-points="true"
     inkscape:grid-bbox="false"
     showborder="true">
    <sodipodi:guide
       orientation="vertical"
       position="24.041631"
       id="guide2191" />
    <sodipodi:guide
       orientation="horizontal"
       position="25.986174"
       id="guide2203" />
    <inkscape:grid
       id="grid35"
       type="xygrid"
       originx="0px"
       originy="0px"
       spacingx="0.5px"
       spacingy="0.5px"
       color="#0000ff"
       empcolor="#0000ff"
       opacity="0.2"
       empopacity="0.4"
       empspacing="2" />
  </sodipodi:namedview>
  <metadata
     id="metadata7">
    <rdf:RDF>
      <cc:Work
         rdf:about="">
        <dc:format>image/svg+xml</dc:format>
        <dc:type
           rdf:resource="http://purl.org/dc/dcmitype/StillImage" />
        <dc:creator>
          <cc:Agent>
            <dc:title>Lapo Calamandrei</dc:title>
          </cc:Agent>
        </dc:creator>
        <dc:title>Generic Window</dc:title>
        <dc:subject>
          <rdf:Bag />
        </dc:subject>
        <cc:license
           rdf:resource="http://creativecommons.org/licenses/GPL/2.0/" />
      </cc:Work>
      <cc:License
         rdf:about="http://creativecommons.org/licenses/GPL/2.0/">
        <cc:permits
           rdf:resource="http://web.resource.org/cc/Reproduction" />
        <cc:permits
           rdf:resource="http://web.resource.org/cc/Distribution" />
        <cc:requires
           rdf:resource="http://web.resource.org/cc/Notice" />
        <cc:permits
           rdf:resource="http://web.resource.org/cc/DerivativeWorks" />
        <cc:requires
           rdf:resource="http://web.resource.org/cc/ShareAlike" />
        <cc:requires
           rdf:resource="http://web.resource.org/cc/SourceCode" />
      </cc:License>
    </rdf:RDF>
  </metadata>
  <g
     inkscape:label="Livello 1"
     inkscape:groupmode="layer"
     id="layer1">
    <path
       style="font-size:22.42351341000000176px;font-style:normal;font-weight:bold;fill:#000000;fill-opacity:0;stroke:none;stroke-width:1px;stroke-linecap:butt;stroke-linejoin:miter;stroke-opacity:1;font-family:Bitstream Vera Sans"
       d="M 21.765513,29.5 L 13.263097,29.5 L 13.263097,28.643947 C 13.26309,27.688907 13.526164,26.844499 14.052324,26.11073 C 14.578464,25.365334 15.424072,24.42193 17.114144,23.280515 L 18.644766,22.267227 C 19.553558,21.661598 20.215233,21.090896 20.629793,20.55512 C 21.060264,20.019376 21.275508,19.483615 21.275524,18.947836 C 21.275508,18.132567 20.892852,17.497807 20.127556,17.043555 C 19.362232,16.577699 17.243991,16.344757 15.872821,16.344733 C 14.581347,16.344757 13.186252,16.542757 11.687526,16.938732 C 10.188785,17.323104 8.6262771,17.899627 6.9999949,18.668309 L 6.9999949,13.182581 C 8.9292133,12.693432 10.69102,12.332375 12.285425,12.09941 C 13.879813,11.866497 15.418406,11.750027 16.901208,11.75 C 20.791524,11.750027 24.807096,12.332375 26.847945,13.49705 C 28.888752,14.650123 29.909163,16.338935 29.90919,18.563485 C 29.909163,19.704908 29.598258,20.729842 28.976468,21.638288 C 28.354628,22.535121 27.294356,23.501819 25.795643,24.538388 L 24.26502,25.534205 C 23.180812,26.256327 22.602554,26.838677 22.267747,27.28125 C 21.932907,27.712201 21.765497,28.189725 21.765513,28.713828 L 21.765513,29.5"
       id="path1922"
       sodipodi:nodetypes="cccsccsssssccsssssccscc" />
    <path
       style="fill:#00ffff;fill-opacity:0;stroke-width:2;stroke-miterlimit:4;stroke-dasharray:none"
       d="M 5.7073474,40.81887 C 5.4841949,40.728827 5.3948474,39.914317 5.3948474,37.970072 L 5.3948474,35.247367 L 23.082347,35.178405 C 39.176327,35.115655 40.839732,35.071162 41.54555,34.68455 L 42.321255,34.259657 L 42.491587,37.273657 C 42.612527,39.413642 42.578075,40.388667 42.372772,40.63604 C 42.130177,40.928357 39.180812,40.981265 24.051737,40.964705 C 14.134197,40.953857 5.8792224,40.888225 5.7073474,40.818872 L 5.7073474,40.81887 z"
       id="path2462" />
    <path
       style="fill:#00ffff;fill-opacity:0;stroke-width:2;stroke-miterlimit:4;stroke-dasharray:none"
       d="M 42.3125 34.25 L 41.53125 34.6875 C 40.825432 35.074112 39.187729 35.124749 23.09375 35.1875 L 5.40625 35.25 L 5.40625 37.96875 C 5.40625 39.912995 5.4955975 40.722456 5.71875 40.8125 C 5.890625 40.881853 14.14496 40.957901 24.0625 40.96875 C 39.191575 40.98531 42.132405 40.917317 42.375 40.625 C 42.580303 40.377627 42.620938 39.421233 42.5 37.28125 L 42.3125 34.25 z "
       id="path2464" />
    <path
       style="fill:#666666;fill-opacity:0;stroke-width:2;stroke-miterlimit:4;stroke-dasharray:none"
       d="M 5.7073474,40.81887 C 5.4841949,40.728827 5.3948474,39.914317 5.3948474,37.970072 L 5.3948474,35.247367 L 23.082347,35.178405 C 39.193792,35.115587 40.83915,35.071487 41.547607,34.683487 L 42.325375,34.25753 L 42.501185,37.263495 C 42.628675,39.443005 42.595442,40.36774 42.38032,40.626947 C 42.127785,40.931235 39.399792,40.981505 24.051737,40.964705 C 14.134197,40.953857 5.8792224,40.888225 5.7073474,40.818872 L 5.7073474,40.81887 z"
       id="path2469" />
    <path
       style="fill:#666666;fill-opacity:0;stroke-width:2;stroke-miterlimit:4;stroke-dasharray:none"
       d="M 5.5615199,40.81777 C 5.4698474,40.72611 5.3948474,39.43236 5.3948474,37.942775 L 5.3948474,35.234442 L 22.582347,35.233047 C 33.911567,35.23213 40.094922,35.141385 40.72358,34.966815 C 41.248132,34.82115 41.89501,34.48428 42.16108,34.21821 C 42.639435,33.739855 42.644847,33.773292 42.644847,37.207695 C 42.644847,40.144225 42.58374,40.704397 42.2494,40.832695 C 41.707567,41.040617 5.7697399,41.026002 5.5615149,40.817775 L 5.5615199,40.81777 z"
       id="path2471" />
    <path
       style="fill:#666666;fill-opacity:0;stroke-width:2;stroke-miterlimit:4;stroke-dasharray:none"
       d="M 5.7073474,40.81887 C 5.4841949,40.728827 5.3948474,39.914317 5.3948474,37.970072 L 5.3948474,35.247367 L 23.082347,35.178405 C 39.193792,35.115587 40.83915,35.071487 41.547607,34.683487 L 42.325375,34.25753 L 42.501185,37.263495 C 42.628675,39.443005 42.595442,40.36774 42.38032,40.626947 C 42.127785,40.931235 39.399792,40.981505 24.051737,40.964705 C 14.134197,40.953857 5.8792224,40.888225 5.7073474,40.818872 L 5.7073474,40.81887 z"
       id="path2473" />
    <rect
       style="fill:#666666;fill-opacity:0;stroke-width:2;stroke-miterlimit:4;stroke-dasharray:none"
       id="rect2479"
       width="0"
       height="0.0625"
       x="4.25"
       y="34.9375"
       rx="2"
       ry="0.0625" />
    <rect
       style="fill:#666666;fill-opacity:0;stroke-width:2;stroke-miterlimit:4;stroke-dasharray:none"
       id="rect2481"
       width="34.125"
       height="6.625"
       x="7.875"
       y="49.125"
       rx="0.99539089"
       ry="0.99539089" />
    <rect
       style="fill:#666666;fill-opacity:0;stroke-width:2;stroke-miterlimit:4;stroke-dasharray:none"
       id="rect2483"
       width="15.5"
       height="6.375"
       x="21.625"
       y="52.375"
       rx="0.99539089"
       ry="0.99539089" />
    <g
       sodipodi:type="inkscape:box3d"
       style="fill:#666666;fill-opacity:0;stroke-width:2;stroke-miterlimit:4;stroke-dasharray:none"
       id="g2485"
       inkscape:perspectiveID="#perspective50"
       inkscape:corner0="3.2666667 : -0.020037383 : 0 : 1"
       inkscape:corner7="-0.10280374 : -0.089066667 : 0.25 : 1">
      <path
         sodipodi:type="inkscape:box3dside"
         id="path2495"
         style="fill:#afafde;fill-rule:evenodd;stroke:none;stroke-width:1px;stroke-linecap:butt;stroke-linejoin:round;stroke-opacity:1"
         inkscape:box3dsidetype="13"
         d="M 5.625,46.75 L 26.75,132.18889 L 31.380855,108.61208 L 7.9704796,45.490775 L 5.625,46.75 z" />
      <path
         sodipodi:type="inkscape:box3dside"
         id="path2487"
         style="fill:#353564;fill-rule:evenodd;stroke:none;stroke-width:1px;stroke-linecap:butt;stroke-linejoin:round;stroke-opacity:1"
         inkscape:box3dsidetype="6"
         d="M 5.625,30.571262 L 5.625,46.75 L 7.9704796,45.490775 L 7.9704796,30.207539 L 5.625,30.571262 z" />
      <path
         sodipodi:type="inkscape:box3dside"
         id="path2497"
         style="fill:#e9e9ff;fill-rule:evenodd;stroke:none;stroke-width:1px;stroke-linecap:butt;stroke-linejoin:round;stroke-opacity:1"
         inkscape:box3dsidetype="11"
         d="M 7.9704796,30.207539 L 31.380855,48.439918 L 31.380855,108.61208 L 7.9704796,45.490775 L 7.9704796,30.207539 z" />
      <path
         sodipodi:type="inkscape:box3dside"
         id="path2489"
         style="fill:#4d4d9f;fill-rule:evenodd;stroke:none;stroke-width:1px;stroke-linecap:butt;stroke-linejoin:round;stroke-opacity:1"
         inkscape:box3dsidetype="5"
         d="M 5.625,30.571262 L 26.75,55.25 L 31.380855,48.439918 L 7.9704796,30.207539 L 5.625,30.571262 z" />
      <path
         sodipodi:type="inkscape:box3dside"
         id="path2493"
         style="fill:#d7d7ff;fill-rule:evenodd;stroke:none;stroke-width:1px;stroke-linecap:butt;stroke-linejoin:round;stroke-opacity:1"
         inkscape:box3dsidetype="14"
         d="M 26.75,55.25 L 26.75,132.18889 L 31.380855,108.61208 L 31.380855,48.439918 L 26.75,55.25 z" />
      <path
         sodipodi:type="inkscape:box3dside"
         id="path2491"
         style="fill:#8686bf;fill-rule:evenodd;stroke:none;stroke-width:1px;stroke-linecap:butt;stroke-linejoin:round;stroke-opacity:1"
         inkscape:box3dsidetype="3"
         d="M 5.625,30.571262 L 26.75,55.25 L 26.75,132.18889 L 5.625,46.75 L 5.625,30.571262 z" />
    </g>
    <path
       sodipodi:type="arc"
       style="fill:#666666;fill-opacity:0;stroke-width:2;stroke-miterlimit:4;stroke-dasharray:none"
       id="path2499"
       sodipodi:cx="-55.5"
       sodipodi:cy="21.75"
       sodipodi:rx="13.75"
       sodipodi:ry="10.5"
       d="M -41.75,21.75 A 13.75,10.5 0 1 1 -69.25,21.75 A 13.75,10.5 0 1 1 -41.75,21.75 z" />
    <path
       sodipodi:type="arc"
       style="fill:#666666;fill-opacity:0;stroke-width:2;stroke-miterlimit:4;stroke-dasharray:none"
       id="path2501"
       sodipodi:cx="-43"
       sodipodi:cy="70.875"
       sodipodi:rx="28.5"
       sodipodi:ry="11.875"
       d="M -14.5,70.875 A 28.5,11.875 0 1 1 -71.5,70.875 A 28.5,11.875 0 1 1 -14.5,70.875 z" />
    <path
       sodipodi:type="arc"
       style="fill:#666666;fill-opacity:0;stroke-width:2;stroke-miterlimit:4;stroke-dasharray:none"
       id="path2503"
       sodipodi:cx="-57.75"
       sodipodi:cy="55"
       sodipodi:rx="41.75"
       sodipodi:ry="16.75"
       d="M -16,55 A 41.75,16.75 0 1 1 -99.5,55 A 41.75,16.75 0 1 1 -16,55 z" />
    <path
       sodipodi:type="arc"
       style="fill:#666666;fill-opacity:0;stroke-width:2;stroke-miterlimit:4;stroke-dasharray:none"
       id="path2505"
       sodipodi:cx="-35.875"
       sodipodi:cy="58.625"
       sodipodi:rx="7.625"
       sodipodi:ry="7.625"
       d="M -28.25,58.625 A 7.625,7.625 0 1 1 -43.5,58.625 A 7.625,7.625 0 1 1 -28.25,58.625 z" />
    <path
       sodipodi:type="arc"
       style="fill:#666666;fill-opacity:0;stroke-width:2;stroke-miterlimit:4;stroke-dasharray:none"
       id="path2507"
       sodipodi:cx="-34.625"
       sodipodi:cy="48"
       sodipodi:rx="16.125"
       sodipodi:ry="12.5"
       d="M -18.5,48 A 16.125,12.5 0 1 1 -50.75,48 A 16.125,12.5 0 1 1 -18.5,48 z" />
    <path
       sodipodi:type="arc"
       style="fill:#666666;fill-opacity:0;stroke-width:2;stroke-miterlimit:4;stroke-dasharray:none"
       id="path2509"
       sodipodi:cx="-28.875"
       sodipodi:cy="51.125"
       sodipodi:rx="16.125"
       sodipodi:ry="7.125"
       d="M -12.75,51.125 A 16.125,7.125 0 1 1 -45,51.125 A 16.125,7.125 0 1 1 -12.75,51.125 z" />
    <path
       style="fill:#666666;fill-opacity:0;stroke-width:2;stroke-miterlimit:4;stroke-dasharray:none"
       d="M -172.05257,34.686562 L -172.05257,-88.813438 L 22.447435,-88.813438 L 216.94743,-88.813438 L 216.94743,34.686562 L 216.94743,158.18656 L 22.447435,158.18656 L -172.05257,158.18656 L -172.05257,34.686562 z M 44.848115,43.567894 C 47.347772,42.825577 47.911337,41.353984 46.134935,40.207729 L 45.197435,39.602792 L 45.196595,29.957177 C 45.196145,24.652089 45.122625,18.548039 45.033227,16.392622 C 44.88307,12.772082 44.827032,12.426604 44.297377,11.855394 C 43.982055,11.515339 43.59853,11.195259 43.445092,11.144114 C 43.268815,11.085354 43.11185,9.8309395 43.018692,7.736302 L 42.871262,4.4214795 L 42.025652,3.6790245 L 41.18004,2.936562 L 21.376237,2.9374995 C 2.0241573,2.9384095 1.5537598,2.949817 0.75370229,3.437612 C 0.30339479,3.712157 -0.17740271,4.232357 -0.31474771,4.5936045 C -0.47341771,5.010927 -0.53950771,10.427409 -0.49601771,19.448487 L -0.42756521,33.646554 L 0.15264979,34.264022 C 0.47176729,34.603639 1.2311423,35.021009 1.8401498,35.191522 L 2.9474348,35.501542 L 2.9474348,38.231469 C 2.9474348,41.431092 3.2279098,42.186867 4.6926273,42.934109 C 5.4865623,43.339149 6.2005048,43.441394 8.3749748,43.461482 C 9.8585823,43.475189 11.353685,43.576474 11.697435,43.686562 C 12.041185,43.796649 19.36139,43.897937 27.96456,43.911642 C 41.074187,43.932524 43.807677,43.876874 44.848122,43.567894 L 44.848115,43.567894 z"
       id="path2511" />
    <path
       style="fill:#666666;fill-opacity:0;stroke-width:2;stroke-miterlimit:4;stroke-dasharray:none"
       d="M 5.6157098,40.771507 C 5.5231598,40.678954 5.4474348,39.384479 5.4474348,37.894894 L 5.4474348,35.186562 L 22.83046,35.186562 C 37.91123,35.186562 40.335435,35.135612 41.134202,34.801864 C 41.640592,34.590282 42.143455,34.280907 42.251675,34.114364 C 42.359887,33.947824 42.420087,35.386562 42.385435,37.311562 L 42.322435,40.811562 L 24.05321,40.875679 C 14.00514,40.910934 5.7082648,40.864059 5.6157123,40.771507 L 5.6157098,40.771507 z"
       id="path2513" />
    <path
       style="fill:#666666;fill-opacity:0;stroke-width:2;stroke-miterlimit:4;stroke-dasharray:none"
       d="M -172.05257,34.686562 L -172.05257,-88.813438 L 22.447435,-88.813438 L 216.94743,-88.813438 L 216.94743,34.686562 L 216.94743,158.18656 L 22.447435,158.18656 L -172.05257,158.18656 L -172.05257,34.686562 z M 44.848115,43.567894 C 47.347772,42.825577 47.911337,41.353984 46.134935,40.207729 L 45.197435,39.602792 L 45.196595,29.957177 C 45.196145,24.652089 45.122625,18.548039 45.033227,16.392622 C 44.88307,12.772082 44.827032,12.426604 44.297377,11.855394 C 43.982055,11.515339 43.59853,11.195259 43.445092,11.144114 C 43.268815,11.085354 43.11185,9.8309395 43.018692,7.736302 L 42.871262,4.4214795 L 42.025652,3.6790245 L 41.18004,2.936562 L 21.376237,2.9374995 C 2.0241573,2.9384095 1.5537598,2.949817 0.75370229,3.437612 C 0.30339479,3.712157 -0.17740271,4.232357 -0.31474771,4.5936045 C -0.47341771,5.010927 -0.53950771,10.427409 -0.49601771,19.448487 L -0.42756521,33.646554 L 0.15264979,34.264022 C 0.47176729,34.603639 1.2311423,35.021009 1.8401498,35.191522 L 2.9474348,35.501542 L 2.9474348,38.231469 C 2.9474348,41.431092 3.2279098,42.186867 4.6926273,42.934109 C 5.4865623,43.339149 6.2005048,43.441394 8.3749748,43.461482 C 9.8585823,43.475189 11.353685,43.576474 11.697435,43.686562 C 12.041185,43.796649 19.36139,43.897937 27.96456,43.911642 C 41.074187,43.932524 43.807677,43.876874 44.848122,43.567894 L 44.848115,43.567894 z"
       id="path2515" />
    <rect
       style="fill:#666666;fill-opacity:0;stroke-width:2;stroke-miterlimit:4;stroke-dasharray:none"
       id="rect2517"
       width="27.75"
       height="15"
       x="-77.25"
       y="21.5"
       rx="0.99539089"
       ry="0.99539089" />
    <path
       style="fill:#666666;fill-opacity:0;stroke-width:2;stroke-miterlimit:4;stroke-dasharray:none"
       d="M -72.12805,13.973869 C -73.06332,13.853602 -74.178438,13.574262 -74.60609,13.353114 C -75.03374,13.131967 -76.022018,12.893139 -76.802258,12.822392 L -78.22087,12.693757 L -77.469053,11.305672 C -76.522435,9.5579243 -76.502113,7.9298043 -77.382583,4.3784343 C -77.723158,3.0047318 -78.12531,0.53079183 -78.276258,-1.1192082 C -78.4272,-2.7692082 -78.841468,-5.5254582 -79.196848,-7.2442082 C -79.64079,-9.3912807 -79.885463,-11.523163 -79.978715,-14.056708 C -80.135795,-18.324321 -80.525823,-17.921173 -76.760925,-17.382738 C -74.709103,-17.089303 -73.18062,-17.088486 -66.635925,-17.377346 C -62.396328,-17.564466 -57.854163,-17.794766 -56.542228,-17.889121 L -54.15689,-18.060676 L -53.61386,-14.964941 C -53.265845,-12.980981 -52.925083,-9.2206207 -52.665,-4.4942082 C -52.259763,2.8701168 -52.305228,4.5128368 -53.020208,8.3399343 C -53.13331,8.9453493 -53.124255,10.198984 -53.00008,11.125782 C -52.875905,12.052584 -52.83203,12.868592 -52.902578,12.939137 C -52.973125,13.009687 -53.546908,12.613147 -54.17765,12.057944 L -55.324453,11.048487 L -57.414183,12.027764 C -59.676193,13.087777 -61.850033,13.576114 -66.158485,13.992112 C -69.211248,14.286867 -69.705813,14.285357 -72.128053,13.973872 L -72.12805,13.973869 z"
       id="path2521" />
    <path
       style="fill:#666666;fill-opacity:0;stroke-width:2;stroke-miterlimit:4;stroke-dasharray:none"
       d="M -72.12805,13.973869 C -73.06332,13.853602 -74.178438,13.574262 -74.60609,13.353114 C -75.03374,13.131967 -76.022018,12.893139 -76.802258,12.822392 L -78.22087,12.693757 L -77.469053,11.305672 C -76.522435,9.5579243 -76.502113,7.9298043 -77.382583,4.3784343 C -77.723158,3.0047318 -78.12531,0.53079183 -78.276258,-1.1192082 C -78.4272,-2.7692082 -78.841468,-5.5254582 -79.196848,-7.2442082 C -79.64079,-9.3912807 -79.885463,-11.523163 -79.978715,-14.056708 C -80.135795,-18.324321 -80.525823,-17.921173 -76.760925,-17.382738 C -74.709103,-17.089303 -73.18062,-17.088486 -66.635925,-17.377346 C -62.396328,-17.564466 -57.854163,-17.794766 -56.542228,-17.889121 L -54.15689,-18.060676 L -53.61386,-14.964941 C -53.265845,-12.980981 -52.925083,-9.2206207 -52.665,-4.4942082 C -52.259763,2.8701168 -52.305228,4.5128368 -53.020208,8.3399343 C -53.13331,8.9453493 -53.124255,10.198984 -53.00008,11.125782 C -52.875905,12.052584 -52.83203,12.868592 -52.902578,12.939137 C -52.973125,13.009687 -53.546908,12.613147 -54.17765,12.057944 L -55.324453,11.048487 L -57.414183,12.027764 C -59.676193,13.087777 -61.850033,13.576114 -66.158485,13.992112 C -69.211248,14.286867 -69.705813,14.285357 -72.128053,13.973872 L -72.12805,13.973869 z"
       id="path2523" />
    <path
       style="fill:#666666;fill-opacity:0;stroke-width:2;stroke-miterlimit:4;stroke-dasharray:none"
       d="M -72.12805,13.973869 C -73.06332,13.853602 -74.178438,13.574262 -74.60609,13.353114 C -75.03374,13.131967 -76.022018,12.893139 -76.802258,12.822392 L -78.22087,12.693757 L -77.469053,11.305672 C -76.522435,9.5579243 -76.502113,7.9298043 -77.382583,4.3784343 C -77.723158,3.0047318 -78.12531,0.53079183 -78.276258,-1.1192082 C -78.4272,-2.7692082 -78.841468,-5.5254582 -79.196848,-7.2442082 C -79.64079,-9.3912807 -79.885463,-11.523163 -79.978715,-14.056708 C -80.135795,-18.324321 -80.525823,-17.921173 -76.760925,-17.382738 C -74.709103,-17.089303 -73.18062,-17.088486 -66.635925,-17.377346 C -62.396328,-17.564466 -57.854163,-17.794766 -56.542228,-17.889121 L -54.15689,-18.060676 L -53.61386,-14.964941 C -53.265845,-12.980981 -52.925083,-9.2206207 -52.665,-4.4942082 C -52.259763,2.8701168 -52.305228,4.5128368 -53.020208,8.3399343 C -53.13331,8.9453493 -53.124255,10.198984 -53.00008,11.125782 C -52.875905,12.052584 -52.83203,12.868592 -52.902578,12.939137 C -52.973125,13.009687 -53.546908,12.613147 -54.17765,12.057944 L -55.324453,11.048487 L -57.414183,12.027764 C -59.676193,13.087777 -61.850033,13.576114 -66.158485,13.992112 C -69.211248,14.286867 -69.705813,14.285357 -72.128053,13.973872 L -72.12805,13.973869 z"
       id="path2525" />
    <path
       style="fill:#666666;fill-opacity:0;stroke-width:2;stroke-miterlimit:4;stroke-dasharray:none"
       d="M -72.12805,13.973869 C -73.06332,13.853602 -74.178438,13.574262 -74.60609,13.353114 C -75.03374,13.131967 -76.022018,12.893139 -76.802258,12.822392 L -78.22087,12.693757 L -77.469053,11.305672 C -76.522435,9.5579243 -76.502113,7.9298043 -77.382583,4.3784343 C -77.723158,3.0047318 -78.12531,0.53079183 -78.276258,-1.1192082 C -78.4272,-2.7692082 -78.841468,-5.5254582 -79.196848,-7.2442082 C -79.64079,-9.3912807 -79.885463,-11.523163 -79.978715,-14.056708 C -80.135795,-18.324321 -80.525823,-17.921173 -76.760925,-17.382738 C -74.709103,-17.089303 -73.18062,-17.088486 -66.635925,-17.377346 C -62.396328,-17.564466 -57.854163,-17.794766 -56.542228,-17.889121 L -54.15689,-18.060676 L -53.61386,-14.964941 C -53.265845,-12.980981 -52.925083,-9.2206207 -52.665,-4.4942082 C -52.259763,2.8701168 -52.305228,4.5128368 -53.020208,8.3399343 C -53.13331,8.9453493 -53.124255,10.198984 -53.00008,11.125782 C -52.875905,12.052584 -52.83203,12.868592 -52.902578,12.939137 C -52.973125,13.009687 -53.546908,12.613147 -54.17765,12.057944 L -55.324453,11.048487 L -57.414183,12.027764 C -59.676193,13.087777 -61.850033,13.576114 -66.158485,13.992112 C -69.211248,14.286867 -69.705813,14.285357 -72.128053,13.973872 L -72.12805,13.973869 z"
       id="path2527" />
    <path
       style="fill:#666666;fill-opacity:0;stroke-width:2;stroke-miterlimit:4;stroke-dasharray:none"
       d="M -54.15625 -18.0625 L -56.53125 -17.875 C -57.843185 -17.780645 -62.385403 -17.56212 -66.625 -17.375 C -73.169695 -17.08614 -74.698178 -17.081565 -76.75 -17.375 C -80.514898 -17.913435 -80.125831 -18.330113 -79.96875 -14.0625 C -79.875498 -11.528955 -79.631444 -9.3970724 -79.1875 -7.25 C -78.83212 -5.53125 -78.43219 -2.775 -78.28125 -1.125 C -78.130302 0.52500003 -77.715574 3.0012976 -77.375 4.375 C -76.49453 7.92637 -76.52213 9.5647526 -77.46875 11.3125 L -78.21875 12.6875 L -76.8125 12.8125 C -76.03226 12.883247 -75.021403 13.122603 -74.59375 13.34375 C -74.166098 13.564898 -73.060268 13.848483 -72.125 13.96875 C -69.70276 14.280235 -69.209013 14.294755 -66.15625 14 C -61.847798 13.584002 -59.668258 13.091263 -57.40625 12.03125 L -55.3125 11.0625 L -54.1875 12.0625 C -53.872129 12.340101 -53.574857 12.559033 -53.34375 12.71875 C -53.112643 12.878467 -52.941524 12.972775 -52.90625 12.9375 C -52.835702 12.866955 -52.875825 12.051802 -53 11.125 C -53.124175 10.198202 -53.144354 8.949165 -53.03125 8.34375 C -52.31627 4.5166525 -52.251012 2.8643251 -52.65625 -4.5 C -52.916333 -9.2264125 -53.276984 -12.98479 -53.625 -14.96875 L -54.15625 -18.0625 z "
       id="path2529" />
    <path
       style="fill:#666666;fill-opacity:0;stroke-width:2;stroke-miterlimit:4;stroke-dasharray:none"
       d="M -72.568093,14.023686 C -73.227939,13.919657 -73.547629,13.819187 -75.300931,13.16483 C -75.807331,12.975832 -76.293007,12.907168 -77.144681,12.904163 C -77.911841,12.901456 -78.300931,12.853005 -78.300931,12.760183 C -78.300931,12.683241 -78.106241,12.29979 -77.868286,11.908073 C -77.196757,10.802621 -76.820141,9.9099497 -76.734033,9.2196334 C -76.622002,8.3214834 -76.856796,6.8044784 -77.509002,4.2125822 C -77.980514,2.3387622 -78.093948,1.6529447 -78.187461,0.11058592 C -78.310567,-1.9198991 -78.586002,-3.8830566 -79.164031,-6.8499178 C -80.024162,-11.264734 -80.403747,-14.420495 -80.246383,-15.84828 C -80.204608,-16.227308 -80.137159,-16.812643 -80.096494,-17.149028 L -80.022557,-17.760639 L -78.779451,-17.679172 C -78.095738,-17.634367 -77.281953,-17.540698 -76.971036,-17.471019 C -75.779177,-17.203919 -74.229161,-17.13757 -71.471887,-17.235628 C -64.370933,-17.488162 -61.435752,-17.617915 -59.050931,-17.784709 C -57.641556,-17.88328 -55.897806,-18.001505 -55.175931,-18.047432 L -53.863431,-18.130933 L -53.846753,-17.146674 C -53.836518,-16.542384 -53.701219,-15.655735 -53.496282,-14.849918 C -53.219334,-13.760959 -53.142543,-13.086764 -53.045411,-10.891452 C -52.981024,-9.4361678 -52.816807,-6.7642941 -52.680489,-4.9539516 C -52.170941,1.8129909 -52.205763,4.1289947 -52.871943,7.7811259 C -53.176988,9.4534547 -53.178394,9.4933834 -52.983943,10.968626 C -52.875637,11.790303 -52.821377,12.648323 -52.863363,12.875341 L -52.939702,13.288098 L -53.958454,12.329731 C -54.518768,11.802626 -55.097278,11.316651 -55.244032,11.249786 C -55.461101,11.150882 -55.811799,11.27844 -57.124643,11.933796 C -59.452807,13.095988 -60.471333,13.387952 -63.800931,13.847575 C -65.461883,14.076856 -71.465846,14.19746 -72.568094,14.023685 L -72.568093,14.023686 z"
       id="path2534" />
    <path
       style="fill:#333333;fill-opacity:0;stroke-width:2;stroke-miterlimit:4;stroke-dasharray:none"
       d="M -53.875 -18.125 L -55.1875 -18.0625 C -55.909375 -18.016573 -57.653126 -17.87982 -59.0625 -17.78125 C -61.447321 -17.614456 -64.367797 -17.502534 -71.46875 -17.25 C -74.226024 -17.151942 -75.776888 -17.201649 -76.96875 -17.46875 C -77.279667 -17.538429 -78.097539 -17.642694 -78.78125 -17.6875 L -80.03125 -17.75 L -80.09375 -17.15625 C -80.134415 -16.819865 -80.208224 -16.222778 -80.25 -15.84375 C -80.407364 -14.415965 -80.01638 -11.258566 -79.15625 -6.84375 C -78.578221 -3.8768888 -78.310605 -1.905485 -78.1875 0.125 C -78.093987 1.6673588 -77.971511 2.3449301 -77.5 4.21875 C -76.847794 6.8106462 -76.60672 8.3206003 -76.71875 9.21875 C -76.804858 9.9090663 -77.203471 10.800798 -77.875 11.90625 C -78.112955 12.297967 -78.312497 12.673058 -78.3125 12.75 C -78.3125 12.842822 -77.923407 12.903543 -77.15625 12.90625 C -76.304576 12.909255 -75.818897 12.967252 -75.3125 13.15625 C -73.559198 13.810607 -73.222347 13.927221 -72.5625 14.03125 C -72.011376 14.118137 -70.252641 14.130839 -68.40625 14.09375 C -67.483055 14.075205 -66.532416 14.040834 -65.71875 14 C -64.905084 13.959166 -64.227738 13.90107 -63.8125 13.84375 C -62.147701 13.613938 -61.055602 13.431968 -60.09375 13.15625 C -59.612824 13.018391 -59.16241 12.854236 -58.6875 12.65625 C -58.21259 12.458264 -57.707041 12.228048 -57.125 11.9375 C -55.812156 11.282144 -55.467067 11.151096 -55.25 11.25 C -55.103246 11.316865 -54.529064 11.816645 -53.96875 12.34375 L -52.9375 13.28125 L -52.875 12.875 C -52.833014 12.647982 -52.860443 11.790427 -52.96875 10.96875 C -53.163201 9.4935074 -53.180044 9.4535787 -52.875 7.78125 C -52.20882 4.1291188 -52.177952 1.7981927 -52.6875 -4.96875 C -52.823818 -6.7790925 -52.966864 -9.450966 -53.03125 -10.90625 C -53.128382 -13.101562 -53.223053 -13.754791 -53.5 -14.84375 C -53.704937 -15.649567 -53.833516 -16.551961 -53.84375 -17.15625 L -53.875 -18.125 z "
       id="path2536" />
    <path
       style="fill:#333333;fill-opacity:0;stroke-width:2;stroke-miterlimit:4;stroke-dasharray:none"
       d="M -72.568093,14.023686 C -73.227939,13.919657 -73.547629,13.819187 -75.300931,13.16483 C -75.807331,12.975832 -76.293007,12.907168 -77.144681,12.904163 C -77.911841,12.901456 -78.300931,12.853005 -78.300931,12.760183 C -78.300931,12.683241 -78.106241,12.29979 -77.868286,11.908073 C -77.196757,10.802621 -76.820141,9.9099497 -76.734033,9.2196334 C -76.622002,8.3214834 -76.856796,6.8044784 -77.509002,4.2125822 C -77.980514,2.3387622 -78.093948,1.6529447 -78.187461,0.11058592 C -78.310567,-1.9198991 -78.586002,-3.8830566 -79.164031,-6.8499178 C -80.024162,-11.264734 -80.403747,-14.420495 -80.246383,-15.84828 C -80.204608,-16.227308 -80.137159,-16.812643 -80.096494,-17.149028 L -80.022557,-17.760639 L -78.779451,-17.679172 C -78.095738,-17.634367 -77.281953,-17.540698 -76.971036,-17.471019 C -75.779177,-17.203919 -74.229161,-17.13757 -71.471887,-17.235628 C -64.370933,-17.488162 -61.435752,-17.617915 -59.050931,-17.784709 C -57.641556,-17.88328 -55.897806,-18.001505 -55.175931,-18.047432 L -53.863431,-18.130933 L -53.846753,-17.146674 C -53.836518,-16.542384 -53.701219,-15.655735 -53.496282,-14.849918 C -53.219334,-13.760959 -53.142543,-13.086764 -53.045411,-10.891452 C -52.981024,-9.4361678 -52.816807,-6.7642941 -52.680489,-4.9539516 C -52.170941,1.8129909 -52.205763,4.1289947 -52.871943,7.7811259 C -53.176988,9.4534547 -53.178394,9.4933834 -52.983943,10.968626 C -52.875637,11.790303 -52.821377,12.648323 -52.863363,12.875341 L -52.939702,13.288098 L -53.958454,12.329731 C -54.518768,11.802626 -55.097278,11.316651 -55.244032,11.249786 C -55.461101,11.150882 -55.811799,11.27844 -57.124643,11.933796 C -59.452807,13.095988 -60.471333,13.387952 -63.800931,13.847575 C -65.461883,14.076856 -71.465846,14.19746 -72.568094,14.023685 L -72.568093,14.023686 z"
       id="path2541" />
    <path
       style="fill:#333333;fill-opacity:0;stroke-width:2;stroke-miterlimit:4;stroke-dasharray:none"
       d="M -72.568093,14.023686 C -73.227939,13.919657 -73.547629,13.819187 -75.300931,13.16483 C -75.807331,12.975832 -76.293007,12.907168 -77.144681,12.904163 C -77.911841,12.901456 -78.300931,12.853005 -78.300931,12.760183 C -78.300931,12.683241 -78.106241,12.29979 -77.868286,11.908073 C -77.196757,10.802621 -76.820141,9.9099497 -76.734033,9.2196334 C -76.622002,8.3214834 -76.856796,6.8044784 -77.509002,4.2125822 C -77.980514,2.3387622 -78.093948,1.6529447 -78.187461,0.11058592 C -78.310567,-1.9198991 -78.586002,-3.8830566 -79.164031,-6.8499178 C -80.024162,-11.264734 -80.403747,-14.420495 -80.246383,-15.84828 C -80.204608,-16.227308 -80.137159,-16.812643 -80.096494,-17.149028 L -80.022557,-17.760639 L -78.779451,-17.679172 C -78.095738,-17.634367 -77.281953,-17.540698 -76.971036,-17.471019 C -75.779177,-17.203919 -74.229161,-17.13757 -71.471887,-17.235628 C -64.370933,-17.488162 -61.435752,-17.617915 -59.050931,-17.784709 C -57.641556,-17.88328 -55.897806,-18.001505 -55.175931,-18.047432 L -53.863431,-18.130933 L -53.846753,-17.146674 C -53.836518,-16.542384 -53.701219,-15.655735 -53.496282,-14.849918 C -53.219334,-13.760959 -53.142543,-13.086764 -53.045411,-10.891452 C -52.981024,-9.4361678 -52.816807,-6.7642941 -52.680489,-4.9539516 C -52.170941,1.8129909 -52.205763,4.1289947 -52.871943,7.7811259 C -53.176988,9.4534547 -53.178394,9.4933834 -52.983943,10.968626 C -52.875637,11.790303 -52.821377,12.648323 -52.863363,12.875341 L -52.939702,13.288098 L -53.958454,12.329731 C -54.518768,11.802626 -55.097278,11.316651 -55.244032,11.249786 C -55.461101,11.150882 -55.811799,11.27844 -57.124643,11.933796 C -59.452807,13.095988 -60.471333,13.387952 -63.800931,13.847575 C -65.461883,14.076856 -71.465846,14.19746 -72.568094,14.023685 L -72.568093,14.023686 z"
       id="path2543" />
    <path
       style="fill:#333333;fill-opacity:0;stroke-width:2;stroke-miterlimit:4;stroke-dasharray:none"
       d="M -72.568093,14.023686 C -73.227939,13.919657 -73.547629,13.819187 -75.300931,13.16483 C -75.807331,12.975832 -76.293007,12.907168 -77.144681,12.904163 C -77.911841,12.901456 -78.300931,12.853005 -78.300931,12.760183 C -78.300931,12.683241 -78.106241,12.29979 -77.868286,11.908073 C -77.196757,10.802621 -76.820141,9.9099497 -76.734033,9.2196334 C -76.622002,8.3214834 -76.856796,6.8044784 -77.509002,4.2125822 C -77.980514,2.3387622 -78.093948,1.6529447 -78.187461,0.11058592 C -78.310567,-1.9198991 -78.586002,-3.8830566 -79.164031,-6.8499178 C -80.024162,-11.264734 -80.403747,-14.420495 -80.246383,-15.84828 C -80.204608,-16.227308 -80.137159,-16.812643 -80.096494,-17.149028 L -80.022557,-17.760639 L -78.779451,-17.679172 C -78.095738,-17.634367 -77.281953,-17.540698 -76.971036,-17.471019 C -75.779177,-17.203919 -74.229161,-17.13757 -71.471887,-17.235628 C -64.370933,-17.488162 -61.435752,-17.617915 -59.050931,-17.784709 C -57.641556,-17.88328 -55.897806,-18.001505 -55.175931,-18.047432 L -53.863431,-18.130933 L -53.846753,-17.146674 C -53.836518,-16.542384 -53.701219,-15.655735 -53.496282,-14.849918 C -53.219334,-13.760959 -53.142543,-13.086764 -53.045411,-10.891452 C -52.981024,-9.4361678 -52.816807,-6.7642941 -52.680489,-4.9539516 C -52.170941,1.8129909 -52.205763,4.1289947 -52.871943,7.7811259 C -53.176988,9.4534547 -53.178394,9.4933834 -52.983943,10.968626 C -52.875637,11.790303 -52.821377,12.648323 -52.863363,12.875341 L -52.939702,13.288098 L -53.958454,12.329731 C -54.518768,11.802626 -55.097278,11.316651 -55.244032,11.249786 C -55.461101,11.150882 -55.811799,11.27844 -57.124643,11.933796 C -59.452807,13.095988 -60.471333,13.387952 -63.800931,13.847575 C -65.461883,14.076856 -71.465846,14.19746 -72.568094,14.023685 L -72.568093,14.023686 z"
       id="path2545" />
    <path
       style="fill:#333333;fill-opacity:0;stroke-width:2;stroke-miterlimit:4;stroke-dasharray:none"
       d="M -72.568093,14.023686 C -73.227939,13.919657 -73.547629,13.819187 -75.300931,13.16483 C -75.807331,12.975832 -76.293007,12.907168 -77.144681,12.904163 C -77.911841,12.901456 -78.300931,12.853005 -78.300931,12.760183 C -78.300931,12.683241 -78.106241,12.29979 -77.868286,11.908073 C -77.196757,10.802621 -76.820141,9.9099497 -76.734033,9.2196334 C -76.622002,8.3214834 -76.856796,6.8044784 -77.509002,4.2125822 C -77.980514,2.3387622 -78.093948,1.6529447 -78.187461,0.11058592 C -78.310567,-1.9198991 -78.586002,-3.8830566 -79.164031,-6.8499178 C -80.024162,-11.264734 -80.403747,-14.420495 -80.246383,-15.84828 C -80.204608,-16.227308 -80.137159,-16.812643 -80.096494,-17.149028 L -80.022557,-17.760639 L -78.779451,-17.679172 C -78.095738,-17.634367 -77.281953,-17.540698 -76.971036,-17.471019 C -75.779177,-17.203919 -74.229161,-17.13757 -71.471887,-17.235628 C -64.370933,-17.488162 -61.435752,-17.617915 -59.050931,-17.784709 C -57.641556,-17.88328 -55.897806,-18.001505 -55.175931,-18.047432 L -53.863431,-18.130933 L -53.846753,-17.146674 C -53.836518,-16.542384 -53.701219,-15.655735 -53.496282,-14.849918 C -53.219334,-13.760959 -53.142543,-13.086764 -53.045411,-10.891452 C -52.981024,-9.4361678 -52.816807,-6.7642941 -52.680489,-4.9539516 C -52.170941,1.8129909 -52.205763,4.1289947 -52.871943,7.7811259 C -53.176988,9.4534547 -53.178394,9.4933834 -52.983943,10.968626 C -52.875637,11.790303 -52.821377,12.648323 -52.863363,12.875341 L -52.939702,13.288098 L -53.958454,12.329731 C -54.518768,11.802626 -55.097278,11.316651 -55.244032,11.249786 C -55.461101,11.150882 -55.811799,11.27844 -57.124643,11.933796 C -59.452807,13.095988 -60.471333,13.387952 -63.800931,13.847575 C -65.461883,14.076856 -71.465846,14.19746 -72.568094,14.023685 L -72.568093,14.023686 z"
       id="path2547" />
    <path
       style="fill:#333333;fill-opacity:0;stroke-width:2;stroke-miterlimit:4;stroke-dasharray:none"
       d="M -72.568093,14.023686 C -73.227939,13.919657 -73.547629,13.819187 -75.300931,13.16483 C -75.807331,12.975832 -76.293007,12.907168 -77.144681,12.904163 C -77.911841,12.901456 -78.300931,12.853005 -78.300931,12.760183 C -78.300931,12.683241 -78.106241,12.29979 -77.868286,11.908073 C -77.196757,10.802621 -76.820141,9.9099497 -76.734033,9.2196334 C -76.622002,8.3214834 -76.856796,6.8044784 -77.509002,4.2125822 C -77.980514,2.3387622 -78.093948,1.6529447 -78.187461,0.11058592 C -78.310567,-1.9198991 -78.586002,-3.8830566 -79.164031,-6.8499178 C -80.024162,-11.264734 -80.403747,-14.420495 -80.246383,-15.84828 C -80.204608,-16.227308 -80.137159,-16.812643 -80.096494,-17.149028 L -80.022557,-17.760639 L -78.779451,-17.679172 C -78.095738,-17.634367 -77.281953,-17.540698 -76.971036,-17.471019 C -75.779177,-17.203919 -74.229161,-17.13757 -71.471887,-17.235628 C -64.370933,-17.488162 -61.435752,-17.617915 -59.050931,-17.784709 C -57.641556,-17.88328 -55.897806,-18.001505 -55.175931,-18.047432 L -53.863431,-18.130933 L -53.846753,-17.146674 C -53.836518,-16.542384 -53.701219,-15.655735 -53.496282,-14.849918 C -53.219334,-13.760959 -53.142543,-13.086764 -53.045411,-10.891452 C -52.981024,-9.4361678 -52.816807,-6.7642941 -52.680489,-4.9539516 C -52.170941,1.8129909 -52.205763,4.1289947 -52.871943,7.7811259 C -53.176988,9.4534547 -53.178394,9.4933834 -52.983943,10.968626 C -52.875637,11.790303 -52.821377,12.648323 -52.863363,12.875341 L -52.939702,13.288098 L -53.958454,12.329731 C -54.518768,11.802626 -55.097278,11.316651 -55.244032,11.249786 C -55.461101,11.150882 -55.811799,11.27844 -57.124643,11.933796 C -59.452807,13.095988 -60.471333,13.387952 -63.800931,13.847575 C -65.461883,14.076856 -71.465846,14.19746 -72.568094,14.023685 L -72.568093,14.023686 z"
       id="path2549" />
    <path
       style="fill:#333333;fill-opacity:0;stroke-width:2;stroke-miterlimit:4;stroke-dasharray:none"
       d="M -118.80093,14.650082 L -118.80093,-47.099918 L -21.550931,-47.099918 L 75.699069,-47.099918 L 75.699069,14.650082 L 75.699069,76.400082 L -21.550931,76.400082 L -118.80093,76.400082 L -118.80093,14.650082 z M 44.074069,43.72923 C 45.256269,43.457866 46.463732,42.879805 46.878857,42.386458 C 47.557432,41.580001 47.146732,40.57365 45.887607,39.957615 L 45.199069,39.620747 L 45.199069,28.635411 C 45.199069,21.395192 45.156457,17.650082 45.074069,17.650082 C 44.995032,17.650082 44.949069,16.758957 44.949069,15.226708 L 44.949069,12.803337 L 44.542819,12.201382 C 44.296182,11.835938 43.935744,11.498877 43.625444,11.343506 L 43.114319,11.087582 L 43.032257,9.7125822 C 42.987132,8.9563322 42.949944,7.5819047 42.949632,6.6582972 C 42.949144,5.2178322 42.912369,4.9032122 42.691044,4.4460147 C 42.405419,3.8559784 41.576594,3.2277159 40.812344,3.0219247 C 40.510019,2.9405197 33.603082,2.9084072 20.992444,2.9297797 L 1.6365693,2.9625822 L 0.9529218,3.3375822 C 0.4813818,3.5962384 0.1618793,3.8870984 -0.076894449,4.2750822 L -0.42306945,4.8375822 L -0.4275707,18.962582 C -0.4326507,34.891536 -0.4889407,33.931783 0.48610805,34.540768 C 0.7751093,34.721271 1.4422531,34.995093 1.9686456,35.149262 L 2.9257231,35.42957 L 2.9712018,38.258572 C 3.0206493,41.334647 3.0510231,41.480557 3.7876306,42.1805 C 3.9861131,42.369102 4.4760768,42.720666 4.8764343,42.96175 L 5.6043581,43.400082 L 8.2041193,43.400082 C 10.213044,43.400082 10.983719,43.446821 11.595219,43.605741 C 12.030469,43.718855 12.864694,43.852703 13.449069,43.903187 C 14.033444,43.95367 20.952194,43.9836 28.824069,43.969698 C 41.862244,43.946671 43.220044,43.925263 44.074069,43.72923 z M -63.821458,14.97228 C -60.364926,14.517065 -59.067417,14.161578 -56.906096,13.077635 L -55.540082,12.392552 L -54.352459,13.490067 C -53.699266,14.093701 -53.121301,14.602926 -53.068092,14.621678 C -53.014887,14.640432 -52.778318,14.526607 -52.542391,14.368735 C -52.226144,14.157118 -52.053192,13.901816 -51.884183,13.397137 C -51.665829,12.745113 -51.664561,12.63536 -51.857488,11.087582 C -52.053174,9.5176784 -52.051474,9.4201997 -51.807382,8.2125822 C -51.668416,7.5250822 -51.460593,6.0063322 -51.345546,4.8375822 C -51.111794,2.4629447 -51.191116,-0.28784783 -51.675351,-6.5999178 C -51.809843,-8.3530428 -51.922358,-10.378043 -51.925383,-11.099918 C -51.931936,-12.663334 -52.065403,-13.692225 -52.500354,-15.532277 C -52.784191,-16.733047 -52.813348,-17.053204 -52.736562,-18.126027 C -52.688383,-18.799165 -52.678397,-19.349918 -52.714372,-19.349918 C -52.750343,-19.349918 -54.289227,-19.240134 -56.134106,-19.105954 C -61.470007,-18.717868 -69.903216,-18.329625 -73.363431,-18.31276 C -74.959453,-18.30498 -75.768478,-18.359175 -76.613431,-18.530472 C -77.320726,-18.673859 -78.340243,-18.7639 -79.359282,-18.772979 L -80.980133,-18.787418 L -81.138798,-17.912418 C -81.371696,-16.628072 -81.361483,-13.313454 -81.119163,-11.538768 C -81.006616,-10.71451 -80.659294,-8.7176353 -80.347336,-7.1012678 C -79.624096,-3.3539203 -79.446296,-2.1010616 -79.309382,0.21258217 C -79.212727,1.8459147 -79.114434,2.4178609 -78.546773,4.6500822 C -78.005073,6.7802234 -77.892449,7.4129434 -77.879277,8.4000822 C -77.863504,9.5820709 -77.865993,9.5922234 -78.415661,10.587582 C -78.719387,11.137582 -79.111761,11.849576 -79.287599,12.169791 C -79.548196,12.644348 -79.584762,12.815332 -79.485369,13.094522 C -79.247534,13.762593 -78.826598,13.935423 -77.210659,14.028491 C -75.938407,14.101763 -75.628067,14.16467 -74.925931,14.491596 C -74.479056,14.699667 -73.719681,14.933275 -73.238431,15.01072 C -72.757181,15.088166 -72.222806,15.175158 -72.050931,15.204036 C -71.286466,15.332476 -65.269948,15.163042 -63.821459,14.972281 L -63.821458,14.97228 z"
       id="path2551" />
    <path
       style="fill:#333333;fill-opacity:0;stroke-width:2;stroke-miterlimit:4;stroke-dasharray:none"
       d="M -62.943093,22.523686 C -63.602939,22.419657 -63.922629,22.319187 -65.675931,21.66483 C -66.182331,21.475832 -66.668007,21.407168 -67.519681,21.404163 C -68.286841,21.401456 -68.675931,21.353005 -68.675931,21.260183 C -68.675931,21.183241 -68.481241,20.79979 -68.243286,20.408073 C -67.571757,19.302625 -67.195141,18.40995 -67.109033,17.719633 C -66.997002,16.821483 -67.231796,15.304478 -67.884002,12.712582 C -68.355514,10.838762 -68.468948,10.152945 -68.562461,8.6105859 C -68.685567,6.5801009 -68.961002,4.6169434 -69.539031,1.6500822 C -70.399162,-2.7647341 -70.778747,-5.9204953 -70.621383,-7.3482803 C -70.579608,-7.7273053 -70.512159,-8.3126428 -70.471494,-8.6490278 L -70.397557,-9.2606391 L -69.154451,-9.1791716 C -68.470738,-9.1343666 -67.656953,-9.0406978 -67.346036,-8.9710191 C -66.154177,-8.7039191 -64.604161,-8.6375703 -61.846887,-8.7356278 C -54.745933,-8.9881603 -51.810752,-9.1179153 -49.425931,-9.2847091 C -48.016556,-9.3832803 -46.272806,-9.5015053 -45.550931,-9.5474316 L -44.238431,-9.6309316 L -44.221753,-8.6466741 C -44.211518,-8.0423841 -44.076219,-7.1557353 -43.871282,-6.3499178 C -43.594334,-5.2609591 -43.517543,-4.5867641 -43.420411,-2.3914516 C -43.356024,-0.93616783 -43.191807,1.7357059 -43.055489,3.5460484 C -42.545941,10.312991 -42.580763,12.628995 -43.246943,16.281126 C -43.551988,17.953455 -43.553394,17.993383 -43.358943,19.468626 C -43.250637,20.290303 -43.196377,21.148323 -43.238363,21.375341 L -43.314702,21.788098 L -44.333454,20.829731 C -44.893768,20.302626 -45.472278,19.816651 -45.619032,19.749786 C -45.836101,19.650886 -46.186799,19.77844 -47.499643,20.433796 C -49.827803,21.595988 -50.846333,21.887952 -54.175931,22.347575 C -55.836883,22.576852 -61.840846,22.69746 -62.943094,22.523685 L -62.943093,22.523686 z"
       id="path2553" />
    <text
       xml:space="preserve"
       style="font-size:28.16787319000000167px;font-style:oblique;font-variant:normal;font-weight:bold;font-stretch:semi-condensed;text-align:start;line-height:125%;writing-mode:lr;text-anchor:start;fill:#0000ff;fill-opacity:1;stroke:none;stroke-width:1px;stroke-linecap:butt;stroke-linejoin:miter;stroke-opacity:1;font-family:DejaVu Sans;-inkscape-font-specification:DejaVu Sans Bold Oblique Semi-Condensed"
       x="20.343166"
       y="23.666431"
       id="text2485"
       transform="scale(0.973966,1.0267299)"
       sodipodi:linespacing="125%"><tspan
         sodipodi:role="line"
         id="tspan2513">S</tspan></text>
    <text
       xml:space="preserve"
       style="font-size:28.56787681999999862px;font-style:oblique;font-variant:normal;font-weight:bold;font-stretch:semi-condensed;text-align:start;line-height:125%;writing-mode:lr-tb;text-anchor:start;fill:#008000;fill-opacity:1;stroke:none;stroke-width:1px;stroke-linecap:butt;stroke-linejoin:miter;stroke-opacity:1;font-family:DejaVu Sans;-inkscape-font-specification:DejaVu Sans Bold Oblique Semi-Condensed"
       x="-0.17775238"
       y="23.800774"
       id="text2477"
       transform="scale(0.9694062,1.0315593)"
       sodipodi:linespacing="125%"><tspan
         sodipodi:role="line"
         id="tspan2479"
         x="-0.17775238"
         y="23.800774">U</tspan></text>
    <text
       xml:space="preserve"
       style="font-size:26.92756080999999924px;font-style:oblique;font-variant:normal;font-weight:bold;font-stretch:semi-condensed;text-align:start;line-height:125%;writing-mode:lr-tb;text-anchor:start;fill:#ff0000;fill-opacity:1;stroke:none;stroke-width:1px;stroke-linecap:butt;stroke-linejoin:miter;stroke-opacity:1;font-family:DejaVu Sans;-inkscape-font-specification:DejaVu Sans Bold Oblique Semi-Condensed"
       x="-24.601816"
       y="58.765705"
       id="text2509"
       transform="scale(-1.5004,0.6664889)"
       sodipodi:linespacing="125%"><tspan
         sodipodi:role="line"
         id="tspan2511"
         x="-24.601816"
         y="58.765705">M</tspan></text>
  </g>
</svg>
